<mxfile host="Electron" agent="Mozilla/5.0 (Windows NT 10.0; Win64; x64) AppleWebKit/537.36 (KHTML, like Gecko) draw.io/27.0.5 Chrome/134.0.6998.205 Electron/35.3.0 Safari/537.36" version="27.0.5">
  <diagram name="第 1 页" id="_7oICd0clVTWk__jCBin">
    <mxGraphModel dx="808" dy="-2944" grid="1" gridSize="10" guides="1" tooltips="1" connect="1" arrows="1" fold="1" page="1" pageScale="1" pageWidth="827" pageHeight="1169" math="0" shadow="0">
      <root>
        <mxCell id="0" />
        <mxCell id="1" parent="0" />
        <mxCell id="OYqqVZTdoTnqzRbL9q6o-1" value="" style="rounded=0;whiteSpace=wrap;html=1;strokeWidth=2;container=0;shadow=1;" vertex="1" parent="1">
          <mxGeometry x="40" y="4530" width="410" height="150" as="geometry" />
        </mxCell>
        <mxCell id="OYqqVZTdoTnqzRbL9q6o-2" value="&lt;font face=&quot;Times New Roman&quot;&gt;&lt;b&gt;User Thread&lt;/b&gt;&lt;/font&gt;" style="text;html=1;align=center;verticalAlign=middle;resizable=0;points=[];autosize=1;strokeColor=none;fillColor=none;" vertex="1" parent="1">
          <mxGeometry x="495" y="4540.25" width="90" height="30" as="geometry" />
        </mxCell>
        <mxCell id="OYqqVZTdoTnqzRbL9q6o-3" value="" style="rounded=0;whiteSpace=wrap;html=1;strokeWidth=2;container=0;shadow=1;" vertex="1" parent="1">
          <mxGeometry x="480" y="4545" width="330" height="110" as="geometry" />
        </mxCell>
        <mxCell id="OYqqVZTdoTnqzRbL9q6o-4" value="&lt;font face=&quot;Times New Roman&quot;&gt;&lt;b&gt;Kernel&lt;/b&gt;&lt;/font&gt;" style="text;html=1;align=center;verticalAlign=middle;resizable=0;points=[];autosize=1;strokeColor=none;fillColor=none;" vertex="1" parent="1">
          <mxGeometry x="515" y="4690" width="60" height="30" as="geometry" />
        </mxCell>
        <mxCell id="OYqqVZTdoTnqzRbL9q6o-5" value="&lt;font face=&quot;Times New Roman&quot;&gt;async fn system_call()&lt;/font&gt;" style="rounded=1;whiteSpace=wrap;html=1;" vertex="1" parent="1">
          <mxGeometry x="258.57" y="4550" width="120" height="30" as="geometry" />
        </mxCell>
        <mxCell id="OYqqVZTdoTnqzRbL9q6o-6" value="" style="rounded=1;whiteSpace=wrap;html=1;" vertex="1" parent="1">
          <mxGeometry x="59.999999999999986" y="4550" width="150" height="70" as="geometry" />
        </mxCell>
        <mxCell id="OYqqVZTdoTnqzRbL9q6o-7" value="&lt;font face=&quot;Times New Roman&quot;&gt;async fn reply_dispatcher(buf)&lt;/font&gt;" style="rounded=1;whiteSpace=wrap;html=1;" vertex="1" parent="1">
          <mxGeometry x="258.57" y="4587.5" width="120" height="35" as="geometry" />
        </mxCell>
        <mxCell id="OYqqVZTdoTnqzRbL9q6o-8" value="&lt;font face=&quot;Times New Roman&quot;&gt;Async Runtime&lt;/font&gt;" style="text;html=1;align=center;verticalAlign=middle;resizable=0;points=[];autosize=1;strokeColor=none;fillColor=none;" vertex="1" parent="1">
          <mxGeometry x="59.99999999999997" y="4550" width="100" height="30" as="geometry" />
        </mxCell>
        <mxCell id="OYqqVZTdoTnqzRbL9q6o-11" value="" style="endArrow=classic;html=1;rounded=0;exitX=0.377;exitY=1.005;exitDx=0;exitDy=0;exitPerimeter=0;entryX=0.5;entryY=0;entryDx=0;entryDy=0;" edge="1" parent="1" source="OYqqVZTdoTnqzRbL9q6o-6">
          <mxGeometry width="50" height="50" relative="1" as="geometry">
            <mxPoint x="330" y="4750" as="sourcePoint" />
            <mxPoint x="116.55499999999995" y="4710" as="targetPoint" />
          </mxGeometry>
        </mxCell>
        <mxCell id="OYqqVZTdoTnqzRbL9q6o-12" value="&lt;font face=&quot;Times New Roman&quot;&gt;syscall&lt;/font&gt;" style="edgeLabel;html=1;align=center;verticalAlign=middle;resizable=0;points=[];" vertex="1" connectable="0" parent="OYqqVZTdoTnqzRbL9q6o-11">
          <mxGeometry x="-0.468" y="-1" relative="1" as="geometry">
            <mxPoint as="offset" />
          </mxGeometry>
        </mxCell>
        <mxCell id="OYqqVZTdoTnqzRbL9q6o-13" value="&lt;font face=&quot;Times New Roman&quot;&gt;async fn req_&lt;/font&gt;&lt;span style=&quot;font-family: &amp;quot;Times New Roman&amp;quot;;&quot;&gt;dispatcher&lt;/span&gt;&lt;font face=&quot;Times New Roman&quot;&gt;(buf)&lt;/font&gt;" style="rounded=1;whiteSpace=wrap;html=1;" vertex="1" parent="1">
          <mxGeometry x="465" y="4858.75" width="120" height="32.5" as="geometry" />
        </mxCell>
        <mxCell id="OYqqVZTdoTnqzRbL9q6o-14" value="&lt;font face=&quot;Times New Roman&quot;&gt;syscall lib&lt;/font&gt;" style="shape=note;whiteSpace=wrap;html=1;backgroundOutline=1;darkOpacity=0.05;size=14;" vertex="1" parent="1">
          <mxGeometry x="69.44999999999999" y="4580" width="80" height="40" as="geometry" />
        </mxCell>
        <mxCell id="OYqqVZTdoTnqzRbL9q6o-15" value="" style="rounded=0;whiteSpace=wrap;html=1;" vertex="1" parent="1">
          <mxGeometry x="149.45" y="4580" width="50" height="10" as="geometry" />
        </mxCell>
        <mxCell id="OYqqVZTdoTnqzRbL9q6o-16" value="" style="rounded=0;whiteSpace=wrap;html=1;" vertex="1" parent="1">
          <mxGeometry x="149.45" y="4590" width="50" height="10" as="geometry" />
        </mxCell>
        <mxCell id="OYqqVZTdoTnqzRbL9q6o-17" value="" style="rounded=0;whiteSpace=wrap;html=1;" vertex="1" parent="1">
          <mxGeometry x="149.45" y="4600" width="50" height="10" as="geometry" />
        </mxCell>
        <mxCell id="OYqqVZTdoTnqzRbL9q6o-18" value="" style="rounded=0;whiteSpace=wrap;html=1;" vertex="1" parent="1">
          <mxGeometry x="149.45" y="4610" width="50" height="10" as="geometry" />
        </mxCell>
        <mxCell id="OYqqVZTdoTnqzRbL9q6o-19" value="&lt;font style=&quot;font-size: 10px;&quot; face=&quot;Times New Roman&quot;&gt;Task Queue&lt;/font&gt;" style="text;html=1;align=center;verticalAlign=middle;resizable=0;points=[];autosize=1;strokeColor=none;fillColor=none;" vertex="1" parent="1">
          <mxGeometry x="140" y="4555" width="70" height="30" as="geometry" />
        </mxCell>
        <mxCell id="OYqqVZTdoTnqzRbL9q6o-20" value="" style="rounded=1;whiteSpace=wrap;html=1;" vertex="1" parent="1">
          <mxGeometry x="410" y="4720" width="150" height="70" as="geometry" />
        </mxCell>
        <mxCell id="OYqqVZTdoTnqzRbL9q6o-21" value="&lt;font face=&quot;Times New Roman&quot;&gt;Async Runtime&lt;/font&gt;" style="text;html=1;align=center;verticalAlign=middle;resizable=0;points=[];autosize=1;strokeColor=none;fillColor=none;" vertex="1" parent="1">
          <mxGeometry x="399.45" y="4720" width="100" height="30" as="geometry" />
        </mxCell>
        <mxCell id="OYqqVZTdoTnqzRbL9q6o-22" value="&lt;font face=&quot;Times New Roman&quot;&gt;syscall handler&lt;/font&gt;" style="shape=note;whiteSpace=wrap;html=1;backgroundOutline=1;darkOpacity=0.05;size=14;" vertex="1" parent="1">
          <mxGeometry x="469.45" y="4750" width="80" height="40" as="geometry" />
        </mxCell>
        <mxCell id="OYqqVZTdoTnqzRbL9q6o-23" value="" style="rounded=0;whiteSpace=wrap;html=1;" vertex="1" parent="1">
          <mxGeometry x="419.45" y="4750" width="50" height="10" as="geometry" />
        </mxCell>
        <mxCell id="OYqqVZTdoTnqzRbL9q6o-24" value="" style="rounded=0;whiteSpace=wrap;html=1;" vertex="1" parent="1">
          <mxGeometry x="419.45" y="4760" width="50" height="10" as="geometry" />
        </mxCell>
        <mxCell id="OYqqVZTdoTnqzRbL9q6o-25" value="" style="rounded=0;whiteSpace=wrap;html=1;" vertex="1" parent="1">
          <mxGeometry x="419.45" y="4770" width="50" height="10" as="geometry" />
        </mxCell>
        <mxCell id="OYqqVZTdoTnqzRbL9q6o-26" value="" style="rounded=0;whiteSpace=wrap;html=1;" vertex="1" parent="1">
          <mxGeometry x="419.45" y="4780" width="50" height="10" as="geometry" />
        </mxCell>
        <mxCell id="OYqqVZTdoTnqzRbL9q6o-29" value="" style="endArrow=none;dashed=1;html=1;dashPattern=1 3;strokeWidth=2;rounded=0;entryX=0;entryY=0.5;entryDx=0;entryDy=0;" edge="1" parent="1" target="OYqqVZTdoTnqzRbL9q6o-5">
          <mxGeometry width="50" height="50" relative="1" as="geometry">
            <mxPoint x="198.57" y="4590" as="sourcePoint" />
            <mxPoint x="378.57" y="4630" as="targetPoint" />
          </mxGeometry>
        </mxCell>
        <mxCell id="OYqqVZTdoTnqzRbL9q6o-30" value="" style="endArrow=none;dashed=1;html=1;dashPattern=1 3;strokeWidth=2;rounded=0;exitX=0.664;exitY=-0.089;exitDx=0;exitDy=0;exitPerimeter=0;" edge="1" parent="1" source="OYqqVZTdoTnqzRbL9q6o-17">
          <mxGeometry width="50" height="50" relative="1" as="geometry">
            <mxPoint x="328.57" y="4680" as="sourcePoint" />
            <mxPoint x="258.57" y="4610" as="targetPoint" />
          </mxGeometry>
        </mxCell>
        <mxCell id="OYqqVZTdoTnqzRbL9q6o-31" value="" style="endArrow=none;dashed=1;html=1;dashPattern=1 3;strokeWidth=2;rounded=0;exitX=1;exitY=0.5;exitDx=0;exitDy=0;entryX=0;entryY=0.75;entryDx=0;entryDy=0;" edge="1" parent="1" source="OYqqVZTdoTnqzRbL9q6o-13" target="OYqqVZTdoTnqzRbL9q6o-23">
          <mxGeometry width="50" height="50" relative="1" as="geometry">
            <mxPoint x="359.45" y="4757.5" as="sourcePoint" />
            <mxPoint x="399.45" y="4657.5" as="targetPoint" />
          </mxGeometry>
        </mxCell>
        <mxCell id="OYqqVZTdoTnqzRbL9q6o-32" value="" style="endArrow=classic;html=1;rounded=0;exitX=0;exitY=0.5;exitDx=0;exitDy=0;entryX=1;entryY=0.5;entryDx=0;entryDy=0;" edge="1" parent="1" target="OYqqVZTdoTnqzRbL9q6o-7">
          <mxGeometry width="50" height="50" relative="1" as="geometry">
            <mxPoint x="450.78999999999996" y="4605.25" as="sourcePoint" />
            <mxPoint x="378.57" y="4630" as="targetPoint" />
          </mxGeometry>
        </mxCell>
        <mxCell id="OYqqVZTdoTnqzRbL9q6o-33" value="&lt;font face=&quot;Times New Roman&quot;&gt;wake&lt;/font&gt;" style="edgeLabel;html=1;align=center;verticalAlign=middle;resizable=0;points=[];" vertex="1" connectable="0" parent="OYqqVZTdoTnqzRbL9q6o-32">
          <mxGeometry x="0.0192" y="-2" relative="1" as="geometry">
            <mxPoint as="offset" />
          </mxGeometry>
        </mxCell>
        <mxCell id="OYqqVZTdoTnqzRbL9q6o-35" value="" style="endArrow=classic;html=1;rounded=0;exitX=1;exitY=0.25;exitDx=0;exitDy=0;entryX=1;entryY=0.5;entryDx=0;entryDy=0;" edge="1" parent="1" source="OYqqVZTdoTnqzRbL9q6o-7" target="OYqqVZTdoTnqzRbL9q6o-5">
          <mxGeometry width="50" height="50" relative="1" as="geometry">
            <mxPoint x="328.57" y="4680" as="sourcePoint" />
            <mxPoint x="378.57" y="4630" as="targetPoint" />
            <Array as="points">
              <mxPoint x="398.57" y="4596" />
              <mxPoint x="398.57" y="4565" />
            </Array>
          </mxGeometry>
        </mxCell>
        <mxCell id="OYqqVZTdoTnqzRbL9q6o-36" value="&lt;font face=&quot;Times New Roman&quot;&gt;wake&lt;/font&gt;" style="edgeLabel;html=1;align=center;verticalAlign=middle;resizable=0;points=[];" vertex="1" connectable="0" parent="OYqqVZTdoTnqzRbL9q6o-35">
          <mxGeometry x="0.0992" relative="1" as="geometry">
            <mxPoint x="16" as="offset" />
          </mxGeometry>
        </mxCell>
        <mxCell id="OYqqVZTdoTnqzRbL9q6o-37" value="&lt;font face=&quot;Times New Roman&quot;&gt;shared memory&lt;/font&gt;" style="rounded=0;whiteSpace=wrap;html=1;" vertex="1" parent="1">
          <mxGeometry x="233.67" y="4840" width="144.9" height="70" as="geometry" />
        </mxCell>
        <mxCell id="OYqqVZTdoTnqzRbL9q6o-38" value="" style="endArrow=classic;startArrow=classic;html=1;rounded=0;exitX=0;exitY=0.75;exitDx=0;exitDy=0;entryX=-0.007;entryY=0.172;entryDx=0;entryDy=0;entryPerimeter=0;" edge="1" parent="1" source="OYqqVZTdoTnqzRbL9q6o-18" target="OYqqVZTdoTnqzRbL9q6o-37">
          <mxGeometry width="50" height="50" relative="1" as="geometry">
            <mxPoint x="260" y="4750" as="sourcePoint" />
            <mxPoint x="310" y="4700" as="targetPoint" />
          </mxGeometry>
        </mxCell>
      </root>
    </mxGraphModel>
  </diagram>
</mxfile>
